<?xml version="1.0" encoding="utf-8"?>
<!-- Generator: Adobe Illustrator 15.0.0, SVG Export Plug-In . SVG Version: 6.00 Build 0)  -->
<!DOCTYPE svg PUBLIC "-//W3C//DTD SVG 1.1//EN" "http://www.w3.org/Graphics/SVG/1.1/DTD/svg11.dtd">
<svg version="1.1" id="Layer_1" xmlns="http://www.w3.org/2000/svg" xmlns:xlink="http://www.w3.org/1999/xlink" x="0px" y="0px"
	 width="20px" height="20px" viewBox="698.66 698.66 20 20" enable-background="new 698.66 698.66 20 20" xml:space="preserve">
<path fill="#CCCCCC" d="M701.518,717.231h15.714v-11.428h-15.714V717.231z M705.803,703.66v-3.214c0-0.104-0.034-0.189-0.1-0.257
	c-0.067-0.066-0.153-0.1-0.257-0.1h-0.714c-0.104,0-0.19,0.034-0.257,0.1c-0.067,0.067-0.101,0.153-0.101,0.257v3.214
	c0,0.104,0.034,0.189,0.101,0.257c0.067,0.067,0.152,0.1,0.257,0.1h0.714c0.104,0,0.19-0.033,0.257-0.1
	C705.77,703.85,705.803,703.764,705.803,703.66z M714.375,703.66v-3.214c0-0.104-0.034-0.189-0.101-0.257
	c-0.067-0.066-0.152-0.1-0.257-0.1h-0.715c-0.104,0-0.189,0.034-0.257,0.1c-0.065,0.067-0.101,0.153-0.101,0.257v3.214
	c0,0.104,0.035,0.189,0.101,0.257c0.067,0.067,0.153,0.1,0.257,0.1h0.715c0.104,0,0.189-0.033,0.257-0.1
	C714.341,703.85,714.375,703.764,714.375,703.66z M718.66,702.946v14.286c0,0.387-0.142,0.722-0.425,1.005
	c-0.282,0.283-0.616,0.424-1.004,0.424h-15.714c-0.387,0-0.722-0.141-1.005-0.424c-0.282-0.283-0.424-0.618-0.424-1.005v-14.286
	c0-0.387,0.142-0.722,0.424-1.004c0.283-0.283,0.618-0.424,1.005-0.424h1.429v-1.072c0-0.491,0.174-0.912,0.524-1.261
	c0.35-0.35,0.771-0.524,1.262-0.524h0.714c0.491,0,0.912,0.175,1.261,0.524s0.525,0.77,0.525,1.261v1.072h4.286v-1.072
	c0-0.491,0.175-0.912,0.524-1.261s0.771-0.524,1.261-0.524h0.715c0.491,0,0.911,0.175,1.261,0.524s0.524,0.77,0.524,1.261v1.072
	h1.429c0.388,0,0.722,0.141,1.004,0.424C718.519,702.224,718.66,702.559,718.66,702.946z"/>
</svg>
