<?xml version="1.0" encoding="utf-8"?>
<!-- Generator: Adobe Illustrator 15.0.0, SVG Export Plug-In . SVG Version: 6.00 Build 0)  -->
<!DOCTYPE svg PUBLIC "-//W3C//DTD SVG 1.1//EN" "http://www.w3.org/Graphics/SVG/1.1/DTD/svg11.dtd">
<svg version="1.1" id="Layer_1" xmlns="http://www.w3.org/2000/svg" xmlns:xlink="http://www.w3.org/1999/xlink" x="0px" y="0px"
	 width="150px" height="150px" viewBox="38.75 0 150 150" enable-background="new 38.75 0 150 150" xml:space="preserve">
<g>
	<g>
		<path fill="#231F20" d="M174.195,71.662c-0.222,0-0.444-0.085-0.614-0.254c-0.339-0.339-0.339-0.89,0-1.229l1.49-1.49
			c0.338-0.338,0.888-0.34,1.228,0c0.34,0.339,0.34,0.889,0,1.229l-1.489,1.49C174.64,71.577,174.418,71.662,174.195,71.662z"/>
	</g>
	<g>
		<path fill="#231F20" d="M169.528,76.328c-0.223,0-0.444-0.084-0.614-0.255c-0.34-0.338-0.34-0.889,0-1.228l1.491-1.49
			c0.339-0.341,0.889-0.339,1.228,0c0.34,0.339,0.34,0.889,0,1.229l-1.49,1.489C169.973,76.244,169.75,76.328,169.528,76.328z"/>
	</g>
	<g>
		<path fill="#231F20" d="M175.686,76.328c-0.224,0-0.445-0.084-0.614-0.255l-1.49-1.489c-0.339-0.34-0.339-0.89,0-1.229
			c0.34-0.341,0.89-0.339,1.229,0l1.489,1.49c0.34,0.34,0.34,0.89,0,1.228C176.13,76.244,175.906,76.328,175.686,76.328z"/>
	</g>
	<g>
		<path fill="#231F20" d="M171.02,71.662c-0.224,0-0.445-0.085-0.614-0.255l-1.491-1.49c-0.34-0.34-0.34-0.89,0-1.229
			c0.339-0.34,0.889-0.34,1.229,0l1.49,1.49c0.34,0.34,0.34,0.89,0,1.229C171.464,71.577,171.242,71.662,171.02,71.662z"/>
	</g>
	<g>
		<path fill="#231F20" d="M128.75,16.633c-0.223,0-0.444-0.085-0.614-0.255c-0.339-0.338-0.339-0.888,0-1.228l1.491-1.49
			c0.339-0.34,0.889-0.34,1.229,0c0.339,0.338,0.339,0.889,0,1.227l-1.491,1.491C129.194,16.548,128.973,16.633,128.75,16.633z"/>
	</g>
	<g>
		<path fill="#231F20" d="M124.084,21.3c-0.222,0-0.444-0.085-0.614-0.255c-0.339-0.338-0.339-0.889,0-1.229l1.49-1.49
			c0.338-0.339,0.888-0.34,1.229-0.002c0.339,0.34,0.339,0.891,0,1.23l-1.49,1.49C124.528,21.215,124.307,21.3,124.084,21.3z"/>
	</g>
	<g>
		<path fill="#231F20" d="M130.241,21.3c-0.223,0-0.444-0.085-0.614-0.255l-1.491-1.49c-0.339-0.34-0.339-0.89,0-1.229
			c0.34-0.34,0.89-0.34,1.229,0l1.491,1.49c0.339,0.34,0.339,0.89,0,1.229C130.686,21.215,130.464,21.3,130.241,21.3z"/>
	</g>
	<g>
		<path fill="#231F20" d="M125.574,16.633c-0.224,0-0.445-0.085-0.614-0.255l-1.49-1.491c-0.339-0.338-0.339-0.889,0-1.229
			c0.341-0.338,0.891-0.338,1.229,0.002l1.49,1.49c0.339,0.34,0.339,0.89,0,1.229C126.019,16.548,125.796,16.633,125.574,16.633z"/>
	</g>
	<g>
		<circle fill="#FFD05B" cx="130.962" cy="32.513" r="2.212"/>
	</g>
	<g>
		<circle fill="#FF7058" cx="114.412" cy="6.927" r="2.212"/>
	</g>
	<g>
		<circle fill="#CED5E0" cx="181.266" cy="57.546" r="3.271"/>
	</g>
	<g>
		<circle fill="#FF7058" cx="177.775" cy="97.986" r="2.171"/>
	</g>
	<g>
		<circle fill="#FFD05B" cx="62.737" cy="138.852" r="2.171"/>
	</g>
	<g>
		<rect x="78.27" fill="#231F20" width="3.35" height="1.737"/>
	</g>
	<g>
		<polygon fill="#FFFFFF" points="96.243,0.869 96.243,20.938 116.313,20.938 		"/>
		<path fill="#231F20" d="M116.313,21.808h-20.07c-0.479,0-0.869-0.388-0.869-0.869V0.869c0-0.352,0.212-0.669,0.536-0.804
			c0.325-0.135,0.698-0.059,0.947,0.189l20.07,20.069c0.248,0.249,0.322,0.622,0.188,0.948
			C116.981,21.596,116.665,21.808,116.313,21.808z M97.111,20.07h17.104L97.111,2.966V20.07z"/>
	</g>
	<g>
		<polygon fill="#FFD05B" points="98.559,18.622 98.559,6.461 110.721,18.622 		"/>
	</g>
	<path fill="#FFFFFF" d="M148.269,60.98v88.15H71.572V61.109c0-2.196-0.891-4.197-2.338-5.645c-1.445-1.446-3.447-2.338-5.645-2.338
		h76.825C144.753,53.127,148.269,56.643,148.269,60.98z"/>
	<g>
		<path fill="#FFD05B" d="M56.217,94.57c1.104-1.67,1.695-3.628,1.695-5.679V61.108c0-1.514,0.59-2.936,1.658-4.006
			c1.069-1.069,2.497-1.659,4.02-1.659c1.514,0,2.937,0.59,4.007,1.659c1.07,1.07,1.658,2.492,1.658,4.006V94.57H56.217z"/>
	</g>
	<g>
		<g>
			<path fill="#231F20" d="M168.207,43.902h-5.111c-0.449,0-0.824-0.343-0.865-0.79l-0.304-3.272
				c-2.26-0.466-4.372-1.34-6.295-2.604l-2.524,2.099c-0.344,0.285-0.851,0.265-1.17-0.056l-3.615-3.614
				c-0.317-0.316-0.34-0.823-0.054-1.169l2.097-2.526c-1.264-1.923-2.138-4.035-2.604-6.295l-3.272-0.303
				c-0.447-0.042-0.789-0.417-0.789-0.864v-5.113c0-0.449,0.342-0.823,0.789-0.864l3.272-0.304c0.467-2.259,1.34-4.372,2.604-6.294
				l-2.097-2.526c-0.286-0.345-0.264-0.852,0.054-1.169l3.615-3.615c0.319-0.318,0.826-0.34,1.17-0.055l2.525,2.098
				c1.922-1.264,4.034-2.137,6.294-2.604l0.304-3.272C162.271,0.342,162.646,0,163.096,0h5.111c0.449,0,0.823,0.342,0.865,0.788
				l0.303,3.272c2.26,0.468,4.371,1.341,6.295,2.604l2.526-2.098c0.346-0.284,0.853-0.263,1.17,0.055l3.613,3.615
				c0.318,0.317,0.341,0.824,0.055,1.169l-2.097,2.526c1.263,1.922,2.137,4.035,2.604,6.294l3.272,0.304
				c0.446,0.042,0.788,0.417,0.788,0.864v5.113c0,0.447-0.342,0.822-0.788,0.864l-3.272,0.303c-0.466,2.26-1.341,4.372-2.604,6.295
				l2.097,2.526c0.286,0.346,0.264,0.853-0.055,1.169l-3.615,3.614c-0.316,0.32-0.823,0.341-1.169,0.056l-2.525-2.099
				c-1.924,1.265-4.035,2.138-6.295,2.605l-0.303,3.271C169.03,43.56,168.656,43.902,168.207,43.902z M163.887,42.165h3.528
				l0.291-3.138c0.036-0.392,0.332-0.711,0.721-0.776c2.469-0.419,4.754-1.363,6.791-2.81c0.322-0.229,0.756-0.212,1.059,0.039
				l2.42,2.012l2.495-2.495l-2.01-2.422c-0.251-0.303-0.269-0.736-0.04-1.058c1.446-2.036,2.392-4.321,2.81-6.791
				c0.066-0.389,0.384-0.684,0.776-0.72l3.137-0.292v-3.528l-3.137-0.291c-0.393-0.036-0.71-0.331-0.776-0.72
				c-0.418-2.471-1.363-4.756-2.81-6.791c-0.229-0.321-0.211-0.756,0.04-1.058l2.01-2.422l-2.494-2.494l-2.421,2.009
				c-0.302,0.252-0.735,0.27-1.059,0.041c-2.036-1.448-4.322-2.393-6.791-2.81c-0.389-0.065-0.685-0.385-0.721-0.776l-0.291-3.138
				h-3.528l-0.29,3.138c-0.036,0.392-0.333,0.711-0.721,0.776c-2.471,0.417-4.756,1.363-6.79,2.81
				c-0.321,0.229-0.755,0.213-1.06-0.041l-2.42-2.01l-2.495,2.495l2.01,2.422c0.251,0.302,0.268,0.736,0.039,1.058
				c-1.445,2.035-2.391,4.32-2.81,6.791c-0.065,0.389-0.385,0.684-0.776,0.72l-3.136,0.291v3.528l3.136,0.292
				c0.393,0.036,0.711,0.331,0.776,0.72c0.419,2.47,1.364,4.755,2.81,6.791c0.229,0.321,0.212,0.755-0.039,1.058l-2.01,2.422
				l2.495,2.495l2.419-2.012c0.304-0.25,0.738-0.268,1.059-0.039c2.036,1.445,4.321,2.391,6.792,2.81
				c0.388,0.065,0.685,0.385,0.721,0.776L163.887,42.165z"/>
		</g>
		<g>
			<path fill="#231F20" d="M165.547,36.025c-0.414-0.004-0.825-0.025-1.229-0.062l0.162-1.729c0.355,0.034,0.717,0.051,1.081,0.054
				L165.547,36.025z M168.005,35.83l-0.29-1.715c0.357-0.059,0.711-0.136,1.057-0.225l0.438,1.681
				C168.814,35.674,168.412,35.76,168.005,35.83z M161.892,35.517c-0.399-0.109-0.792-0.237-1.175-0.382l0.613-1.625
				c0.333,0.125,0.676,0.237,1.025,0.333L161.892,35.517z M171.533,34.741l-0.728-1.578c0.329-0.151,0.648-0.316,0.96-0.495
				l0.864,1.509C172.273,34.379,171.908,34.568,171.533,34.741z M158.492,34.071c-0.354-0.209-0.699-0.436-1.033-0.675l1.014-1.411
				c0.293,0.21,0.595,0.406,0.904,0.591L158.492,34.071z M174.655,32.77l-1.115-1.333c0.276-0.231,0.544-0.475,0.801-0.729
				l1.225,1.232C175.274,32.229,174.97,32.507,174.655,32.77z M155.589,31.792c-0.287-0.294-0.563-0.602-0.823-0.918l1.344-1.104
				c0.229,0.279,0.469,0.549,0.722,0.806L155.589,31.792z M177.158,30.057l-1.421-0.998c0.207-0.296,0.402-0.6,0.585-0.913
				l1.502,0.874C177.617,29.375,177.395,29.721,177.158,30.057z M153.375,28.839c-0.202-0.358-0.388-0.726-0.558-1.103l1.586-0.712
				c0.147,0.329,0.311,0.65,0.485,0.962L153.375,28.839z M178.871,26.788l-1.631-0.599c0.123-0.336,0.232-0.68,0.326-1.029
				l1.679,0.45C179.138,26.011,179.013,26.403,178.871,26.788z M152.006,25.409c-0.1-0.397-0.184-0.8-0.248-1.209l1.715-0.274
				c0.058,0.357,0.13,0.711,0.219,1.058L152.006,25.409z M179.672,23.182l-1.73-0.148c0.031-0.357,0.047-0.718,0.047-1.082h1.737
				C179.726,22.365,179.707,22.777,179.672,23.182z M153.315,21.768l-1.737-0.024c0.006-0.414,0.03-0.825,0.071-1.229l1.729,0.174
				C153.342,21.044,153.321,21.403,153.315,21.768z M177.858,20.155c-0.053-0.357-0.12-0.713-0.202-1.062l1.69-0.399
				c0.095,0.398,0.172,0.802,0.23,1.213L177.858,20.155z M153.785,18.566l-1.672-0.476c0.114-0.397,0.244-0.789,0.389-1.171
				l1.624,0.62C153.997,17.874,153.883,18.217,153.785,18.566z M176.974,17.045c-0.144-0.331-0.302-0.655-0.473-0.972l1.526-0.827
				c0.196,0.36,0.377,0.73,0.541,1.109L176.974,17.045z M155.073,15.599l-1.488-0.895c0.211-0.354,0.438-0.696,0.68-1.028
				l1.407,1.021C155.46,14.987,155.26,15.289,155.073,15.599z M175.309,14.272c-0.226-0.282-0.462-0.555-0.711-0.816l1.261-1.196
				c0.282,0.298,0.553,0.608,0.81,0.931L175.309,14.272z M157.09,13.068l-1.203-1.252c0.295-0.285,0.603-0.557,0.922-0.814
				l1.095,1.348C157.623,12.578,157.352,12.818,157.09,13.068z M172.977,12.024c-0.289-0.215-0.588-0.417-0.896-0.604l0.907-1.482
				c0.352,0.215,0.693,0.446,1.023,0.69L172.977,12.024z M159.694,11.146l-0.84-1.521c0.358-0.198,0.728-0.382,1.103-0.549
				l0.706,1.588C160.333,10.811,160.01,10.971,159.694,11.146z M170.144,10.459c-0.334-0.133-0.674-0.249-1.021-0.351l0.488-1.668
				c0.397,0.118,0.788,0.251,1.169,0.399L170.144,10.459z M162.707,9.968l-0.414-1.688c0.397-0.097,0.8-0.177,1.208-0.24
				l0.268,1.717C163.41,9.812,163.055,9.882,162.707,9.968z M167.005,9.688c-0.355-0.039-0.716-0.062-1.081-0.07l0.039-1.737
				c0.414,0.009,0.824,0.036,1.229,0.08L167.005,9.688z"/>
		</g>
		<g>
			<circle fill="#FF7058" cx="165.651" cy="21.951" r="10.483"/>
		</g>
		<g>
			<circle fill="#FFFFFF" cx="165.651" cy="21.951" r="5.24"/>
			<path fill="#231F20" d="M165.651,28.06c-3.368,0-6.109-2.74-6.109-6.108s2.741-6.109,6.109-6.109
				c3.369,0,6.108,2.741,6.108,6.109S169.021,28.06,165.651,28.06z M165.651,17.579c-2.41,0-4.371,1.962-4.371,4.372
				s1.961,4.371,4.371,4.371c2.411,0,4.371-1.961,4.371-4.371S168.062,17.579,165.651,17.579z"/>
		</g>
	</g>
	<g>
		<g>
			<rect x="47.23" y="26.452" fill="#231F20" width="17.966" height="1.737"/>
		</g>
		<g>
			<rect x="47.23" y="32.158" fill="#231F20" width="17.966" height="1.738"/>
		</g>
		<g>
			<rect x="47.23" y="37.865" fill="#231F20" width="17.966" height="1.737"/>
		</g>
		<g>
			<rect x="47.23" y="43.573" fill="#231F20" width="17.966" height="1.737"/>
		</g>
		<g>
			<rect x="68.983" y="26.452" fill="#231F20" width="17.965" height="1.737"/>
		</g>
		<g>
			<rect x="68.983" y="32.158" fill="#231F20" width="17.965" height="1.738"/>
		</g>
		<g>
			<rect x="68.983" y="37.865" fill="#231F20" width="17.965" height="1.737"/>
		</g>
		<g>
			<rect x="68.983" y="43.573" fill="#231F20" width="17.965" height="1.737"/>
		</g>
		<g>
			<rect x="90.736" y="26.452" fill="#231F20" width="17.965" height="1.737"/>
		</g>
		<g>
			<rect x="90.736" y="32.158" fill="#231F20" width="17.965" height="1.738"/>
		</g>
		<g>
			<rect x="90.736" y="37.865" fill="#231F20" width="17.965" height="1.737"/>
		</g>
	</g>
	<g>
		<g>
			<rect x="79.047" y="103.735" fill="#231F20" width="17.967" height="1.738"/>
		</g>
		<g>
			<rect x="79.047" y="110.493" fill="#231F20" width="17.967" height="1.737"/>
		</g>
		<g>
			<rect x="79.047" y="117.251" fill="#231F20" width="17.967" height="1.737"/>
		</g>
		<g>
			<rect x="79.047" y="124.007" fill="#231F20" width="17.967" height="1.737"/>
		</g>
		<g>
			<rect x="100.801" y="103.735" fill="#231F20" width="17.966" height="1.738"/>
		</g>
		<g>
			<rect x="100.801" y="110.493" fill="#231F20" width="17.966" height="1.737"/>
		</g>
		<g>
			<rect x="100.801" y="117.251" fill="#231F20" width="17.966" height="1.737"/>
		</g>
		<g>
			<rect x="100.801" y="124.007" fill="#231F20" width="17.966" height="1.737"/>
		</g>
		<g>
			<rect x="122.554" y="103.735" fill="#231F20" width="17.966" height="1.738"/>
		</g>
		<g>
			<rect x="122.554" y="110.493" fill="#231F20" width="17.966" height="1.737"/>
		</g>
		<g>
			<rect x="122.554" y="117.251" fill="#231F20" width="17.966" height="1.737"/>
		</g>
	</g>
	<g>
		<circle fill="#84DBFF" cx="50.292" cy="115.54" r="7.506"/>
	</g>
	<path fill="#231F20" d="M50.292,104.247c-6.227,0-11.293,5.066-11.293,11.293c0,6.228,5.066,11.294,11.293,11.294
		c6.228,0,11.294-5.066,11.294-11.294C61.586,109.313,56.52,104.247,50.292,104.247z M59.804,114.672h-4.74
		c-0.102-3.129-0.742-6.236-1.88-8.237C56.777,107.578,59.452,110.794,59.804,114.672z M50.292,125.097
		c-1.184,0-2.873-3.357-3.041-8.688h6.083C53.165,121.739,51.477,125.097,50.292,125.097z M47.251,114.672
		c0.168-5.33,1.857-8.688,3.041-8.688c1.185,0,2.873,3.357,3.042,8.688H47.251z M47.401,106.434
		c-1.137,2.002-1.778,5.109-1.88,8.238H40.78C41.132,110.794,43.808,107.578,47.401,106.434z M40.78,116.409h4.73
		c0.101,3.116,0.741,6.229,1.87,8.23C43.797,123.49,41.131,120.28,40.78,116.409z M53.204,124.64
		c1.129-2.002,1.769-5.114,1.869-8.23h4.73C59.453,120.28,56.787,123.49,53.204,124.64z"/>
	<path fill="#FFFFFF" d="M116.651,140.79h3.435v-8.219h-3.435c-2.271,0-4.109,1.839-4.109,4.109l0,0
		C112.542,138.949,114.381,140.79,116.651,140.79z"/>
	<rect x="120.086" y="132.571" fill="#FFFFFF" width="48.966" height="8.219"/>
	<polygon fill="#FFFFFF" points="169.052,132.571 182.468,136.681 169.052,140.79 	"/>
	<line fill="#FFFFFF" x1="149.586" y1="88.854" x2="154.967" y2="94.235"/>
	<circle fill="#84DBFF" cx="130.755" cy="70.025" r="26.629"/>
	<circle fill="#FFFFFF" cx="130.757" cy="70.025" r="20.973"/>
	<path fill="#231F20" d="M130.756,80.002c-0.479,0-0.869-0.373-0.869-0.853c0-3.515,1.84-6.76,4.92-8.712
		c2.312-1.466,3.661-4.077,3.518-6.815c-0.2-3.814-3.345-6.959-7.158-7.159c-2.094-0.106-4.103,0.624-5.626,2.069
		c-1.523,1.446-2.363,3.398-2.363,5.499c0,0.479-0.389,0.868-0.868,0.868c-0.48,0-0.869-0.389-0.869-0.868
		c0-2.581,1.031-4.981,2.905-6.759c1.87-1.777,4.332-2.686,6.912-2.545c4.689,0.246,8.556,4.112,8.803,8.803
		c0.177,3.365-1.48,6.574-4.323,8.375c-2.574,1.631-4.112,4.327-4.112,7.213C131.624,79.6,131.235,80.002,130.756,80.002z"/>
	<path fill="#231F20" d="M130.756,84.72c-0.479,0-0.869-0.389-0.869-0.868v-0.648c0-0.479,0.39-0.869,0.869-0.869
		s0.868,0.39,0.868,0.869v0.648C131.624,84.331,131.235,84.72,130.756,84.72z"/>
	<path fill="#FFFFFF" d="M154.965,94.235L154.965,94.235c-2.179,2.179-2.179,5.709,0,7.888l16.406,16.404
		c2.177,2.179,5.709,2.179,7.886,0l0,0c2.179-2.177,2.179-5.708,0-7.887l-16.404-16.405
		C160.675,92.058,157.144,92.058,154.965,94.235z"/>
	
		<rect x="157.808" y="100.804" transform="matrix(0.7071 0.7071 -0.7071 0.7071 124.1686 -87.0068)" fill="#E6E9EE" width="18.606" height="11.155"/>
	<g>
		<path fill="#231F20" d="M182.723,135.85l-13.415-4.11c-0.031-0.01-0.065,0-0.098-0.005c-0.053-0.011-0.102-0.033-0.157-0.033
			h-19.916V90.442c0.142-0.128,0.287-0.252,0.426-0.382l4.237,4.235c-1.919,2.525-1.751,6.138,0.552,8.441l16.404,16.404
			c2.513,2.514,6.604,2.514,9.117,0c2.513-2.512,2.512-6.603-0.002-9.115l-14.78-14.781l-1.624-1.624
			c-2.303-2.302-5.914-2.47-8.438-0.554l-4.237-4.235c4.624-4.922,7.463-11.537,7.463-18.807c0-15.163-12.335-27.499-27.498-27.499
			c-4.937,0-9.566,1.317-13.574,3.605V20.938c0-0.238-0.097-0.456-0.254-0.614L96.857,0.255C96.7,0.098,96.482,0,96.243,0H85.121
			v1.737h10.253v19.201c0,0.481,0.39,0.869,0.869,0.869h19.201v25.399c-2.107,1.42-4.012,3.119-5.651,5.051H63.59
			c-2.372,0-4.599,0.921-6.271,2.593c-1.672,1.671-2.593,3.894-2.593,6.258v27.783c0,1.908-0.74,3.7-2.083,5.043
			c-1.344,1.343-3.13,2.082-5.03,2.082c-3.93,0-7.126-3.195-7.126-7.125V1.737h34.127V0H39.619c-0.48,0-0.869,0.389-0.869,0.869
			v88.022c0,4.888,3.976,8.862,8.863,8.862h23.091v51.377c0,0.479,0.389,0.869,0.868,0.869h76.696c0.479,0,0.868-0.39,0.868-0.869
			v-7.474h19.916c0.085,0,0.171-0.012,0.255-0.037l13.415-4.109c0.366-0.112,0.614-0.449,0.614-0.831
			S183.089,135.961,182.723,135.85z M178.643,111.255c1.836,1.836,1.836,4.824,0.002,6.659c-1.838,1.835-4.825,1.835-6.66,0
			l-1.01-1.011l6.658-6.659L178.643,111.255z M164.477,97.088l11.928,11.928l-6.659,6.659l-11.928-11.928L164.477,97.088z
			 M155.58,94.85c1.835-1.836,4.823-1.835,6.658,0l1.009,1.01l-6.658,6.659l-1.009-1.01C153.744,99.673,153.743,96.686,155.58,94.85
			z M97.111,20.07V2.966l17.104,17.104H97.111z M130.756,44.265c14.205,0,25.761,11.556,25.761,25.761s-11.556,25.761-25.761,25.761
			c-14.204,0-25.761-11.556-25.761-25.761S116.552,44.265,130.756,44.265z M70.704,96.017h-17.82
			c0.348-0.258,0.678-0.543,0.988-0.854c1.671-1.671,2.592-3.899,2.592-6.271V61.108c0-1.899,0.739-3.687,2.084-5.029
			c1.344-1.344,3.134-2.084,5.042-2.084c1.9,0,3.687,0.74,5.03,2.084c1.344,1.343,2.084,3.13,2.084,5.029V96.017z M147.399,148.263
			H72.441V61.108c0-2.364-0.921-4.587-2.593-6.258c-0.311-0.312-0.643-0.596-0.988-0.855h39.573
			c-3.252,4.518-5.176,10.052-5.176,16.03c0,15.163,12.336,27.498,27.498,27.498c6.254,0,12.02-2.106,16.644-5.637v39.814h-30.748
			c-2.745,0-4.979,2.234-4.979,4.979c0,2.745,2.233,4.978,4.979,4.978h30.748V148.263z M119.217,133.438v6.481h-2.565
			c-1.787,0-3.241-1.453-3.241-3.24s1.454-3.241,3.241-3.241H119.217z M168.185,139.92h-47.23v-2.372h47.23V139.92z
			 M168.185,135.811h-47.23v-2.372h47.23V135.811z M169.922,139.615v-5.87l9.581,2.935L169.922,139.615z"/>
		<path fill="#231F20" d="M130.756,91.866c12.044,0,21.843-9.798,21.843-21.841c0-12.044-9.799-21.842-21.843-21.842
			c-12.042,0-21.841,9.798-21.841,21.842C108.915,82.068,118.714,91.866,130.756,91.866z M130.756,49.921
			c11.085,0,20.104,9.019,20.104,20.104c0,11.085-9.02,20.104-20.104,20.104c-11.086,0-20.104-9.019-20.104-20.104
			C110.652,58.939,119.67,49.921,130.756,49.921z"/>
	</g>
</g>
</svg>
