<?xml version="1.0" encoding="utf-8"?>
<!-- Generator: Adobe Illustrator 15.0.0, SVG Export Plug-In . SVG Version: 6.00 Build 0)  -->
<!DOCTYPE svg PUBLIC "-//W3C//DTD SVG 1.1//EN" "http://www.w3.org/Graphics/SVG/1.1/DTD/svg11.dtd">
<svg version="1.1" id="Layer_1" xmlns="http://www.w3.org/2000/svg" xmlns:xlink="http://www.w3.org/1999/xlink" x="0px" y="0px"
	 width="222.5px" height="150px" viewBox="2.5 0 222.5 150" enable-background="new 2.5 0 222.5 150" xml:space="preserve">
<g>
	<path fill="#E6E9EE" d="M157.553,149.13H81.092c-4.242,0-7.683-3.439-7.683-7.683V8.552c0-4.244,3.441-7.683,7.683-7.683h76.461
		c4.244,0,7.683,3.439,7.683,7.683v132.896C165.235,145.69,161.797,149.13,157.553,149.13z"/>
	<rect x="73.409" y="19.297" fill="#FFFFFF" width="91.827" height="111.403"/>
	<circle fill="#FFFFFF" cx="85.872" cy="9.996" r="3.599"/>
	<path fill="#231F20" d="M85.871,14.464c-2.463,0-4.467-2.004-4.467-4.468s2.004-4.468,4.467-4.468c2.465,0,4.469,2.004,4.469,4.468
		S88.336,14.464,85.871,14.464z M85.871,7.266c-1.504,0-2.73,1.225-2.73,2.73s1.227,2.73,2.73,2.73c1.508,0,2.731-1.225,2.731-2.73
		S87.379,7.266,85.871,7.266z"/>
	<path fill="#231F20" d="M114.414,11.341h-1.701c-0.479,0-0.869-0.389-0.869-0.869c0-0.479,0.39-0.869,0.869-0.869h1.701
		c0.479,0,0.869,0.389,0.869,0.869C115.283,10.952,114.894,11.341,114.414,11.341z"/>
	<path fill="#231F20" d="M131.357,11.341h-12.875c-0.48,0-0.869-0.389-0.869-0.869c0-0.479,0.389-0.869,0.869-0.869h12.875
		c0.48,0,0.869,0.389,0.869,0.869C132.227,10.952,131.838,11.341,131.357,11.341z"/>
	<path fill="#231F20" d="M108.989,11.341h-1.702c-0.48,0-0.869-0.389-0.869-0.869c0-0.479,0.389-0.869,0.869-0.869h1.702
		c0.479,0,0.868,0.389,0.868,0.869C109.857,10.952,109.469,11.341,108.989,11.341z"/>
	<path fill="#FFFFFF" d="M127.008,143.675H111.64c-2.849,0-5.156-2.309-5.156-5.156l0,0c0-1.29,1.046-2.337,2.337-2.337h21.006
		c1.289,0,2.337,1.047,2.337,2.337l0,0C132.163,141.366,129.854,143.675,127.008,143.675z"/>
	<path fill="#231F20" d="M127.008,144.542H111.64c-3.322,0-6.024-2.702-6.024-6.024c0-1.767,1.438-3.204,3.205-3.204h21.006
		c1.767,0,3.205,1.438,3.205,3.204C133.031,141.84,130.328,144.542,127.008,144.542z M108.82,137.051
		c-0.81,0-1.468,0.658-1.468,1.467c0,2.365,1.923,4.287,4.287,4.287h15.368c2.363,0,4.287-1.922,4.287-4.287
		c0-0.809-0.66-1.467-1.469-1.467H108.82z"/>
	<path fill="#FFFFFF" d="M172.514,25.676c-27.147,0-49.156,22.009-49.156,49.158c0,7.241,1.578,14.109,4.39,20.3l-14.176,25.783
		l27.41-8.38c8.536,7.146,19.53,11.454,31.532,11.454c27.149,0,49.157-22.009,49.157-49.157
		C221.671,47.685,199.663,25.676,172.514,25.676z"/>
	<path fill="#231F20" d="M220.803,74.834c0,26.626-21.662,48.288-48.289,48.288c-11.307,0-22.309-3.996-30.974-11.251
		c-0.227-0.188-0.531-0.251-0.812-0.165l-25.364,7.754l13.145-23.907c0.133-0.239,0.145-0.529,0.031-0.778
		c-2.861-6.3-4.313-13.009-4.313-19.94c0-26.626,21.663-48.289,48.288-48.289v-1.737c-2.172,0-4.308,0.155-6.409,0.424V8.552
		c0-4.716-3.836-8.552-8.552-8.552H81.092c-4.715,0-8.552,3.836-8.552,8.552v132.896c0,4.716,3.837,8.553,8.552,8.553h76.461
		c4.716,0,8.552-3.837,8.552-8.553v-17.002c2.117,0.273,4.258,0.414,6.409,0.414c27.585,0,50.026-22.441,50.026-50.025H220.803z
		 M74.277,8.552c0-3.758,3.058-6.814,6.814-6.814h76.461c3.758,0,6.814,3.057,6.814,6.814v9.877h-90.09V8.552z M164.367,141.447
		c0,3.758-3.057,6.815-6.814,6.815H81.092c-3.757,0-6.814-3.058-6.814-6.815v-9.878h90.09V141.447z M164.367,129.832h-90.09V20.167
		h90.09v5.314c-23.722,3.905-41.879,24.544-41.879,49.354c0,7.034,1.442,13.85,4.288,20.261l-13.966,25.402
		c-0.172,0.311-0.137,0.692,0.087,0.968c0.224,0.273,0.591,0.384,0.927,0.282l26.964-8.242c6.804,5.588,14.963,9.25,23.579,10.677
		V129.832z"/>
	<path fill="#231F20" d="M222.54,74.834h-1.737c0-0.38-0.005-0.759-0.014-1.137l1.737-0.041
		C222.535,74.048,222.54,74.44,222.54,74.834z M220.685,71.423c-0.027-0.379-0.058-0.757-0.093-1.133l1.729-0.163
		c0.037,0.39,0.069,0.782,0.098,1.174L220.685,71.423z M220.327,68.029c-0.052-0.375-0.109-0.75-0.172-1.123l1.715-0.283
		c0.063,0.387,0.122,0.775,0.178,1.166L220.327,68.029z M219.732,64.67c-0.079-0.371-0.163-0.74-0.251-1.107l1.689-0.406
		c0.091,0.382,0.178,0.765,0.261,1.152L219.732,64.67z M218.899,61.363c-0.105-0.364-0.215-0.726-0.33-1.088l1.656-0.525
		c0.12,0.375,0.233,0.751,0.343,1.129L218.899,61.363z M217.832,58.117c-0.132-0.358-0.268-0.713-0.408-1.066l1.615-0.64
		c0.145,0.365,0.286,0.734,0.422,1.104L217.832,58.117z M216.533,54.953c-0.156-0.347-0.316-0.691-0.481-1.033l1.565-0.754
		c0.171,0.354,0.337,0.711,0.5,1.071L216.533,54.953z M215.016,51.891c-0.181-0.335-0.366-0.667-0.555-0.996l1.507-0.864
		c0.197,0.342,0.387,0.686,0.575,1.033L215.016,51.891z M213.285,48.945c-0.205-0.321-0.412-0.639-0.625-0.955l1.446-0.966
		c0.217,0.327,0.433,0.656,0.645,0.989L213.285,48.945z M211.351,46.131c-0.227-0.306-0.457-0.608-0.69-0.907l1.374-1.068
		c0.239,0.311,0.477,0.625,0.712,0.939L211.351,46.131z M209.224,43.459c-0.246-0.287-0.497-0.573-0.751-0.855l1.294-1.161
		c0.263,0.292,0.521,0.588,0.776,0.887L209.224,43.459z M206.915,40.946c-0.266-0.27-0.535-0.537-0.808-0.801l1.208-1.249
		c0.282,0.273,0.562,0.55,0.837,0.83L206.915,40.946z M204.437,38.602c-0.284-0.251-0.572-0.499-0.861-0.742l1.117-1.33
		c0.301,0.252,0.598,0.509,0.893,0.767L204.437,38.602z M201.802,36.437c-0.301-0.231-0.605-0.457-0.912-0.679l1.022-1.405
		c0.316,0.231,0.631,0.464,0.943,0.703L201.802,36.437z M199.021,34.464c-0.317-0.208-0.636-0.413-0.957-0.613l0.92-1.474
		c0.333,0.208,0.663,0.42,0.991,0.635L199.021,34.464z M196.109,32.691c-0.329-0.184-0.66-0.365-0.995-0.544l0.814-1.534
		c0.346,0.183,0.69,0.371,1.031,0.563L196.109,32.691z M193.085,31.132c-0.342-0.161-0.686-0.318-1.032-0.471l0.704-1.588
		c0.357,0.159,0.715,0.321,1.067,0.489L193.085,31.132z M189.958,29.792c-0.354-0.137-0.709-0.271-1.066-0.399l0.589-1.633
		c0.37,0.133,0.738,0.27,1.104,0.412L189.958,29.792z M186.734,28.672c-0.362-0.111-0.727-0.218-1.093-0.321l0.473-1.671
		c0.379,0.106,0.756,0.217,1.13,0.333L186.734,28.672z M183.439,27.786c-0.369-0.086-0.738-0.166-1.111-0.243l0.352-1.701
		c0.386,0.079,0.77,0.164,1.152,0.252L183.439,27.786z M180.091,27.135c-0.374-0.059-0.75-0.113-1.126-0.164l0.23-1.722
		c0.391,0.052,0.779,0.109,1.166,0.17L180.091,27.135z M176.704,26.725c-0.376-0.033-0.755-0.061-1.136-0.085l0.11-1.734
		c0.393,0.025,0.785,0.054,1.174,0.088L176.704,26.725z M173.296,26.55c-0.26-0.003-0.521-0.005-0.782-0.005v-1.737
		c0.271,0,0.539,0.002,0.809,0.005L173.296,26.55z"/>
	<circle fill="#84DBFF" cx="172.514" cy="74.834" r="41.926"/>
	<rect x="145.962" y="65.419" fill="#FFD05B" width="53.104" height="31.862"/>
	<polygon fill="#324A5E" points="172.514,43.638 145.962,65.419 172.514,87.201 199.066,65.419 	"/>
	<polygon fill="#FFFFFF" points="191.46,50.343 191.46,71.653 172.513,87.201 153.571,71.66 153.571,50.343 	"/>
	<polygon fill="#F9B54C" points="167.405,79.691 145.963,97.281 199.066,97.281 199.066,97.281 177.624,79.691 	"/>
	<path fill="#231F20" d="M212.949,8.065c-0.224,0-0.445-0.086-0.614-0.256c-0.34-0.339-0.34-0.889,0-1.229l1.49-1.49
		c0.34-0.339,0.89-0.339,1.229,0c0.34,0.339,0.34,0.89,0,1.229l-1.49,1.49C213.394,7.979,213.172,8.065,212.949,8.065z"/>
	<path fill="#231F20" d="M208.283,12.731c-0.222,0-0.445-0.085-0.614-0.255c-0.34-0.339-0.34-0.889,0-1.229l1.489-1.491
		c0.34-0.339,0.89-0.339,1.229,0c0.34,0.339,0.34,0.889,0,1.229l-1.489,1.491C208.728,12.646,208.505,12.731,208.283,12.731z"/>
	<path fill="#231F20" d="M214.439,12.731c-0.223,0-0.444-0.085-0.614-0.255l-1.49-1.491c-0.34-0.339-0.34-0.889,0-1.229
		c0.339-0.339,0.889-0.339,1.229,0l1.49,1.491c0.34,0.339,0.34,0.889,0,1.229C214.885,12.646,214.663,12.731,214.439,12.731z"/>
	<path fill="#231F20" d="M209.773,8.065c-0.223,0-0.445-0.086-0.615-0.256l-1.489-1.49c-0.34-0.339-0.34-0.889,0-1.229
		c0.339-0.339,0.889-0.339,1.229,0l1.489,1.49c0.34,0.339,0.34,0.889,0,1.229C210.217,7.979,209.995,8.065,209.773,8.065z"/>
	<path fill="#231F20" d="M198.682,130.676c-0.223,0-0.445-0.086-0.615-0.256c-0.34-0.338-0.34-0.89,0-1.229l1.491-1.491
		c0.339-0.339,0.889-0.339,1.228,0c0.34,0.34,0.34,0.89,0,1.229l-1.49,1.491C199.125,130.59,198.903,130.676,198.682,130.676z"/>
	<path fill="#231F20" d="M194.015,135.34c-0.222,0-0.444-0.083-0.614-0.253c-0.34-0.339-0.34-0.891,0-1.229l1.491-1.491
		c0.339-0.339,0.889-0.339,1.228,0c0.34,0.34,0.34,0.89,0,1.229l-1.49,1.491C194.459,135.257,194.236,135.34,194.015,135.34z"/>
	<path fill="#231F20" d="M200.172,135.34c-0.224,0-0.445-0.083-0.614-0.253l-1.491-1.491c-0.34-0.339-0.34-0.889,0-1.229
		c0.339-0.339,0.889-0.339,1.229,0l1.49,1.491c0.34,0.34,0.34,0.89,0,1.229C200.616,135.257,200.395,135.34,200.172,135.34z"/>
	<path fill="#231F20" d="M195.506,130.676c-0.223,0-0.445-0.086-0.614-0.256l-1.491-1.491c-0.34-0.339-0.34-0.888,0-1.229
		c0.339-0.339,0.889-0.339,1.229,0l1.49,1.491c0.34,0.339,0.34,0.889,0,1.229C195.95,130.59,195.728,130.676,195.506,130.676z"/>
	<path fill="#231F20" d="M98.082,45.721c-0.223,0-0.445-0.085-0.615-0.254c-0.339-0.339-0.339-0.89,0-1.229l1.491-1.49
		c0.339-0.339,0.89-0.339,1.229,0s0.339,0.889,0,1.229l-1.491,1.49C98.525,45.636,98.303,45.721,98.082,45.721z"/>
	<path fill="#231F20" d="M93.416,50.389c-0.224,0-0.445-0.086-0.615-0.256c-0.339-0.338-0.339-0.889,0-1.229l1.491-1.491
		c0.339-0.339,0.89-0.339,1.229,0s0.339,0.889,0,1.229l-1.491,1.491C93.859,50.302,93.639,50.389,93.416,50.389z"/>
	<path fill="#231F20" d="M99.572,50.389c-0.222,0-0.444-0.086-0.614-0.256l-1.491-1.491c-0.339-0.339-0.339-0.889,0-1.229
		c0.34-0.339,0.89-0.339,1.229,0l1.491,1.491c0.339,0.339,0.339,0.889,0,1.229C100.017,50.302,99.794,50.389,99.572,50.389z"/>
	<path fill="#231F20" d="M94.905,45.721c-0.222,0-0.443-0.085-0.613-0.254l-1.491-1.49c-0.339-0.339-0.339-0.889,0-1.229
		c0.34-0.339,0.89-0.339,1.229,0l1.491,1.49c0.339,0.339,0.339,0.889,0,1.229C95.351,45.636,95.128,45.721,94.905,45.721z"/>
	<path fill="#231F20" d="M119.7,31.831h-9.374c-0.479,0-0.869-0.389-0.869-0.869s0.39-0.869,0.869-0.869h9.374
		c0.479,0,0.868,0.389,0.868,0.869S120.18,31.831,119.7,31.831z"/>
	<path fill="#231F20" d="M123.385,35.242H118.8c-0.479,0-0.869-0.389-0.869-0.869s0.39-0.869,0.869-0.869h4.585
		c0.48,0,0.869,0.389,0.869,0.869S123.865,35.242,123.385,35.242z"/>
	<path fill="#231F20" d="M128.319,31.831h-4.368c-0.48,0-0.869-0.389-0.869-0.869s0.389-0.869,0.869-0.869h4.368
		c0.479,0,0.868,0.389,0.868,0.869S128.799,31.831,128.319,31.831z"/>
	<path fill="#231F20" d="M115.456,35.242h-0.894c-0.48,0-0.869-0.389-0.869-0.869s0.389-0.869,0.869-0.869h0.894
		c0.479,0,0.868,0.389,0.868,0.869S115.936,35.242,115.456,35.242z"/>
	<path fill="#231F20" d="M95.283,96.444h-9.374c-0.479,0-0.868-0.389-0.868-0.868c0-0.48,0.389-0.869,0.868-0.869h9.374
		c0.479,0,0.869,0.389,0.869,0.869C96.152,96.056,95.763,96.444,95.283,96.444z"/>
	<path fill="#231F20" d="M98.969,99.856h-4.586c-0.48,0-0.869-0.39-0.869-0.869s0.389-0.869,0.869-0.869h4.586
		c0.479,0,0.868,0.39,0.868,0.869S99.447,99.856,98.969,99.856z"/>
	<path fill="#231F20" d="M103.902,96.444h-4.369c-0.479,0-0.868-0.389-0.868-0.868c0-0.48,0.39-0.869,0.868-0.869h4.369
		c0.479,0,0.869,0.389,0.869,0.869C104.771,96.056,104.382,96.444,103.902,96.444z"/>
	<path fill="#231F20" d="M91.039,99.856h-0.895c-0.479,0-0.868-0.39-0.868-0.869s0.39-0.869,0.868-0.869h0.895
		c0.479,0,0.869,0.39,0.869,0.869S91.519,99.856,91.039,99.856z"/>
	<circle fill="#E6E9EE" cx="182.816" cy="11.862" r="2.477"/>
	<circle fill="#84DBFF" cx="212.949" cy="124.824" r="2.476"/>
	<circle fill="#FFD05B" cx="177.863" cy="139.929" r="2.476"/>
	<path fill="#FFFFFF" d="M185.293,57.861h-25.555c-0.479,0-0.869-0.389-0.869-0.869s0.39-0.869,0.869-0.869h25.555
		c0.479,0,0.869,0.389,0.869,0.869S185.772,57.861,185.293,57.861z"/>
	<path fill="#FFFFFF" d="M185.293,61.787h-25.555c-0.479,0-0.869-0.389-0.869-0.869s0.39-0.869,0.869-0.869h25.555
		c0.479,0,0.869,0.389,0.869,0.869S185.772,61.787,185.293,61.787z"/>
	<path fill="#FFFFFF" d="M185.293,65.713h-25.555c-0.479,0-0.869-0.389-0.869-0.869c0-0.48,0.39-0.869,0.869-0.869h25.555
		c0.479,0,0.869,0.389,0.869,0.869C186.162,65.324,185.772,65.713,185.293,65.713z"/>
	<path fill="#FFFFFF" d="M185.293,69.641h-25.555c-0.479,0-0.869-0.389-0.869-0.869s0.39-0.869,0.869-0.869h25.555
		c0.479,0,0.869,0.389,0.869,0.869S185.772,69.641,185.293,69.641z"/>
</g>
</svg>
