<?xml version="1.0" encoding="utf-8"?>
<!-- Generator: Adobe Illustrator 15.0.0, SVG Export Plug-In . SVG Version: 6.00 Build 0)  -->
<!DOCTYPE svg PUBLIC "-//W3C//DTD SVG 1.1//EN" "http://www.w3.org/Graphics/SVG/1.1/DTD/svg11.dtd">
<svg version="1.1" id="Layer_1" xmlns="http://www.w3.org/2000/svg" xmlns:xlink="http://www.w3.org/1999/xlink" x="0px" y="0px"
	 width="150px" height="150px" viewBox="0 0 150 150" enable-background="new 0 0 150 150" xml:space="preserve">
<g>
	<g>
		<g>
			<path fill="#231F20" d="M135.665,71.712c-0.22,0-0.438-0.082-0.605-0.251c-0.334-0.334-0.334-0.875,0-1.21l1.469-1.467
				c0.334-0.334,0.876-0.334,1.209,0c0.335,0.334,0.335,0.877,0,1.21l-1.469,1.467C136.102,71.63,135.883,71.712,135.665,71.712z"/>
		</g>
		<g>
			<path fill="#231F20" d="M131.068,76.309c-0.219,0-0.438-0.083-0.605-0.251c-0.334-0.334-0.334-0.875,0-1.21l1.469-1.468
				c0.334-0.334,0.876-0.334,1.21,0c0.334,0.333,0.334,0.876,0,1.21l-1.468,1.468C131.506,76.226,131.287,76.309,131.068,76.309z"/>
		</g>
		<g>
			<path fill="#231F20" d="M137.132,76.309c-0.218,0-0.437-0.083-0.604-0.251l-1.469-1.468c-0.334-0.334-0.334-0.876,0-1.21
				c0.333-0.334,0.876-0.334,1.209,0l1.469,1.468c0.335,0.335,0.335,0.876,0,1.21C137.57,76.226,137.352,76.309,137.132,76.309z"/>
		</g>
		<g>
			<path fill="#231F20" d="M132.536,71.712c-0.219,0-0.438-0.082-0.604-0.251l-1.469-1.468c-0.334-0.335-0.334-0.876,0-1.21
				c0.334-0.335,0.876-0.335,1.211,0l1.468,1.468c0.334,0.335,0.334,0.877,0,1.21C132.975,71.63,132.755,71.712,132.536,71.712z"/>
		</g>
	</g>
	<g>
		<g>
			<path fill="#231F20" d="M90.904,17.512c-0.22,0-0.438-0.082-0.604-0.25c-0.335-0.335-0.335-0.876,0-1.21l1.468-1.468
				c0.335-0.334,0.876-0.334,1.21,0c0.335,0.334,0.335,0.876,0,1.21l-1.468,1.468C91.343,17.43,91.124,17.512,90.904,17.512z"/>
		</g>
		<g>
			<path fill="#231F20" d="M86.309,22.108c-0.22,0-0.438-0.083-0.604-0.251c-0.335-0.333-0.335-0.875,0-1.21l1.467-1.468
				c0.334-0.334,0.876-0.334,1.21,0c0.334,0.333,0.334,0.876,0,1.21l-1.467,1.468C86.747,22.025,86.527,22.108,86.309,22.108z"/>
		</g>
		<g>
			<path fill="#231F20" d="M92.373,22.108c-0.22,0-0.438-0.083-0.605-0.251L90.3,20.39c-0.335-0.334-0.335-0.876,0-1.21
				c0.334-0.334,0.875-0.334,1.21,0l1.468,1.468c0.335,0.335,0.335,0.876,0,1.21C92.811,22.025,92.593,22.108,92.373,22.108z"/>
		</g>
		<g>
			<path fill="#231F20" d="M87.777,17.512c-0.22,0-0.439-0.082-0.606-0.25l-1.467-1.468c-0.335-0.334-0.335-0.876,0-1.21
				c0.334-0.334,0.875-0.334,1.21,0l1.467,1.468c0.334,0.334,0.334,0.875,0,1.21C88.214,17.43,87.995,17.512,87.777,17.512z"/>
		</g>
	</g>
	<g>
		<g>
			<path fill="#231F20" d="M126.653,136.645c-0.219,0-0.438-0.084-0.605-0.251c-0.333-0.334-0.333-0.876,0-1.21l1.469-1.469
				c0.334-0.334,0.875-0.334,1.21,0c0.334,0.335,0.334,0.876,0,1.21l-1.468,1.469C127.092,136.561,126.872,136.645,126.653,136.645z
				"/>
		</g>
		<g>
			<path fill="#231F20" d="M122.058,141.24c-0.22,0-0.438-0.084-0.605-0.251c-0.334-0.333-0.334-0.876,0-1.209l1.469-1.468
				c0.334-0.335,0.875-0.335,1.21,0c0.334,0.333,0.334,0.874,0,1.208l-1.469,1.469C122.495,141.156,122.276,141.24,122.058,141.24z"
				/>
		</g>
		<g>
			<path fill="#231F20" d="M128.121,141.24c-0.218,0-0.438-0.084-0.604-0.251l-1.469-1.469c-0.333-0.334-0.333-0.875,0-1.208
				c0.335-0.335,0.876-0.335,1.211,0l1.469,1.468c0.334,0.333,0.334,0.876,0,1.209C128.561,141.156,128.341,141.24,128.121,141.24z"
				/>
		</g>
		<g>
			<path fill="#231F20" d="M123.525,136.645c-0.22,0-0.438-0.084-0.604-0.251l-1.469-1.469c-0.334-0.333-0.334-0.875,0-1.21
				c0.334-0.334,0.876-0.334,1.21,0l1.469,1.469c0.334,0.333,0.334,0.876,0,1.21C123.964,136.561,123.745,136.645,123.525,136.645z"
				/>
		</g>
	</g>
	<g>
		<g>
			<path fill="#231F20" d="M21.028,111.128c-0.219,0-0.438-0.084-0.605-0.251c-0.334-0.334-0.334-0.877,0-1.21l1.469-1.468
				c0.334-0.333,0.875-0.333,1.209,0c0.335,0.335,0.335,0.876,0,1.211l-1.468,1.467C21.466,111.044,21.247,111.128,21.028,111.128z"
				/>
		</g>
		<g>
			<path fill="#231F20" d="M16.432,115.724c-0.218,0-0.438-0.084-0.604-0.251c-0.334-0.334-0.334-0.875,0-1.21l1.468-1.467
				c0.334-0.334,0.875-0.334,1.209,0c0.335,0.333,0.335,0.874,0,1.209l-1.467,1.468C16.87,115.64,16.651,115.724,16.432,115.724z"/>
		</g>
		<g>
			<path fill="#231F20" d="M22.497,115.724c-0.22,0-0.438-0.084-0.605-0.251l-1.469-1.468c-0.334-0.335-0.334-0.876,0-1.209
				c0.334-0.334,0.877-0.334,1.21,0l1.468,1.467c0.335,0.335,0.335,0.876,0,1.21C22.935,115.64,22.716,115.724,22.497,115.724z"/>
		</g>
		<g>
			<path fill="#231F20" d="M17.9,111.128c-0.219,0-0.438-0.084-0.604-0.251l-1.468-1.468c-0.334-0.335-0.334-0.877,0-1.21
				c0.334-0.335,0.875-0.335,1.21,0l1.467,1.468c0.335,0.335,0.335,0.876,0,1.21C18.338,111.044,18.119,111.128,17.9,111.128z"/>
		</g>
	</g>
	<g>
		<circle fill="#FFD05B" cx="93.083" cy="33.152" r="2.179"/>
	</g>
	<g>
		<circle fill="#FF7058" cx="76.782" cy="7.953" r="2.179"/>
	</g>
	<g>
		<circle fill="#CED5E0" cx="142.629" cy="57.809" r="3.222"/>
	</g>
	<g>
		<circle fill="#FF7058" cx="139.19" cy="97.64" r="2.139"/>
	</g>
	<g>
		<circle fill="#FFD05B" cx="21.763" cy="125.879" r="2.139"/>
	</g>
	<g>
		<polygon fill="#FFFFFF" points="58.888,1.985 58.888,21.754 78.656,21.754 		"/>
	</g>
	<g>
		<polygon fill="#ACB3BA" points="61.169,19.472 61.169,7.494 73.146,19.472 		"/>
	</g>
	<path fill="#FFFFFF" d="M110.128,61.191v86.822H34.589V61.318c0-2.162-0.878-4.135-2.303-5.56c-1.424-1.425-3.396-2.303-5.56-2.303
		h75.667C106.666,53.456,110.128,56.919,110.128,61.191z"/>
	<g>
		<path fill="#ACB3BA" d="M19.465,94.274c1.087-1.645,1.67-3.572,1.67-5.593V61.317c0-1.491,0.58-2.892,1.633-3.945
			c1.055-1.054,2.46-1.634,3.96-1.634c1.49,0,2.893,0.58,3.946,1.634c1.053,1.054,1.633,2.454,1.633,3.945v32.957H19.465z"/>
	</g>
	<g>
		<g>
			<path fill="#231F20" d="M51.199,124.259h-8.475c-0.472,0-0.855-0.383-0.855-0.855v-8.475c0-0.471,0.384-0.855,0.855-0.855h8.475
				c0.472,0,0.855,0.385,0.855,0.855v8.475C52.055,123.876,51.671,124.259,51.199,124.259z M43.581,122.548h6.762v-6.763h-6.762
				V122.548z"/>
		</g>
		<g>
			<g>
				<path fill="#231F20" d="M93.23,117.551H55.118c-0.474,0-0.855-0.384-0.855-0.855c0-0.473,0.382-0.855,0.855-0.855H93.23
					c0.473,0,0.855,0.383,0.855,0.855C94.086,117.167,93.703,117.551,93.23,117.551z"/>
			</g>
			<g>
				<path fill="#231F20" d="M101.035,122.18H55.118c-0.474,0-0.855-0.383-0.855-0.855s0.382-0.855,0.855-0.855h45.917
					c0.471,0,0.855,0.383,0.855,0.855S101.506,122.18,101.035,122.18z"/>
			</g>
		</g>
	</g>
	<g>
		<path fill="#231F20" d="M128.005,50.951h-5.832c-0.442,0-0.811-0.336-0.853-0.776l-0.354-3.834
			c-2.633-0.531-5.089-1.547-7.317-3.027l-2.961,2.458c-0.34,0.281-0.839,0.259-1.15-0.054l-4.126-4.125
			c-0.312-0.312-0.335-0.812-0.052-1.15l2.456-2.961c-1.48-2.229-2.498-4.687-3.025-7.316l-3.836-0.355
			c-0.439-0.04-0.775-0.41-0.775-0.852v-5.833c0-0.442,0.336-0.812,0.775-0.853l3.836-0.355c0.529-2.632,1.545-5.087,3.025-7.316
			l-2.456-2.96c-0.283-0.341-0.26-0.84,0.052-1.152l4.126-4.124c0.312-0.314,0.811-0.336,1.15-0.054l2.961,2.458
			c2.229-1.482,4.685-2.498,7.317-3.027l0.354-3.835c0.042-0.438,0.41-0.776,0.853-0.776h5.832c0.442,0,0.812,0.338,0.853,0.776
			l0.355,3.835c2.632,0.529,5.087,1.545,7.316,3.027l2.96-2.458c0.34-0.281,0.839-0.26,1.152,0.054l4.124,4.124
			c0.313,0.312,0.336,0.812,0.054,1.152l-2.458,2.959c1.482,2.23,2.497,4.685,3.027,7.317l3.835,0.356
			c0.439,0.04,0.776,0.41,0.776,0.852v5.833c0,0.441-0.337,0.812-0.776,0.852l-3.835,0.355c-0.53,2.631-1.545,5.087-3.027,7.316
			l2.458,2.961c0.282,0.339,0.26,0.838-0.054,1.15l-4.124,4.125c-0.313,0.312-0.812,0.335-1.152,0.054l-2.96-2.458
			c-2.229,1.48-4.685,2.496-7.316,3.027l-0.355,3.834C128.816,50.615,128.447,50.951,128.005,50.951z M122.953,49.24h4.272
			l0.344-3.702c0.036-0.387,0.327-0.699,0.709-0.766c2.84-0.479,5.466-1.566,7.805-3.229c0.316-0.224,0.745-0.208,1.042,0.039
			l2.858,2.373l3.021-3.021l-2.373-2.857c-0.248-0.298-0.265-0.726-0.039-1.043c1.662-2.339,2.748-4.966,3.229-7.805
			c0.064-0.382,0.379-0.673,0.764-0.709l3.704-0.343v-4.273l-3.704-0.343c-0.385-0.037-0.699-0.328-0.764-0.71
			c-0.48-2.84-1.566-5.466-3.229-7.805c-0.226-0.316-0.21-0.744,0.039-1.042l2.373-2.858l-3.021-3.02l-2.858,2.371
			c-0.298,0.248-0.726,0.264-1.042,0.039c-2.339-1.662-4.965-2.748-7.805-3.229c-0.382-0.065-0.673-0.379-0.709-0.764l-0.344-3.704
			h-4.272l-0.344,3.704c-0.035,0.385-0.326,0.698-0.709,0.764c-2.839,0.48-5.466,1.566-7.805,3.229
			c-0.315,0.226-0.744,0.21-1.043-0.039l-2.857-2.373l-3.021,3.021l2.373,2.858c0.247,0.298,0.263,0.726,0.039,1.042
			c-1.662,2.34-2.749,4.966-3.229,7.805c-0.065,0.382-0.379,0.673-0.765,0.71l-3.702,0.343v4.273l3.702,0.343
			c0.386,0.036,0.699,0.327,0.766,0.709c0.479,2.839,1.565,5.465,3.228,7.805c0.224,0.317,0.208,0.745-0.039,1.043l-2.373,2.857
			l3.021,3.021l2.857-2.373c0.299-0.247,0.726-0.264,1.043-0.039c2.339,1.662,4.966,2.749,7.805,3.229
			c0.383,0.066,0.674,0.379,0.709,0.766L122.953,49.24z"/>
	</g>
	<g>
		<path fill="#231F20" d="M124.796,41.962c-0.406-0.008-0.806-0.029-1.202-0.066l0.158-1.704c0.354,0.032,0.713,0.053,1.073,0.06
			L124.796,41.962z M127.198,41.826l-0.225-1.697c0.357-0.048,0.711-0.107,1.06-0.182l0.354,1.675
			C127.995,41.706,127.599,41.772,127.198,41.826z M121.22,41.49c-0.392-0.097-0.778-0.21-1.158-0.335l0.539-1.625
			c0.339,0.112,0.685,0.212,1.033,0.301L121.22,41.49z M130.698,40.947l-0.601-1.603c0.337-0.126,0.666-0.264,0.989-0.415
			l0.722,1.551C131.445,40.649,131.076,40.806,130.698,40.947z M117.839,40.222c-0.358-0.184-0.709-0.381-1.052-0.591l0.895-1.459
			c0.305,0.187,0.617,0.363,0.938,0.526L117.839,40.222z M133.907,39.303l-0.947-1.425c0.299-0.198,0.589-0.408,0.87-0.63
			l1.054,1.35C134.567,38.845,134.242,39.08,133.907,39.303z M114.834,38.222c-0.308-0.257-0.604-0.528-0.891-0.81l1.196-1.222
			c0.256,0.251,0.522,0.492,0.798,0.725L114.834,38.222z M136.664,36.977l-1.243-1.176c0.246-0.261,0.483-0.53,0.709-0.81
			l1.329,1.079C137.204,36.383,136.94,36.685,136.664,36.977z M112.355,35.603c-0.242-0.321-0.47-0.65-0.688-0.989l1.44-0.925
			c0.194,0.303,0.398,0.599,0.614,0.885L112.355,35.603z M138.831,34.091l-1.477-0.866c0.184-0.31,0.353-0.626,0.511-0.949
			l1.536,0.754C139.225,33.39,139.035,33.744,138.831,34.091z M110.527,32.493c-0.163-0.365-0.312-0.74-0.447-1.12l1.612-0.572
			c0.12,0.339,0.254,0.671,0.399,0.997L110.527,32.493z M140.294,30.786l-1.635-0.506c0.106-0.342,0.2-0.688,0.281-1.039
			l1.668,0.383C140.518,30.018,140.412,30.404,140.294,30.786z M109.45,29.05c-0.075-0.393-0.135-0.789-0.182-1.19l1.7-0.194
			c0.042,0.358,0.096,0.714,0.162,1.063L109.45,29.05z M140.969,27.242l-1.706-0.125c0.025-0.356,0.039-0.715,0.039-1.076h1.711
			C141.013,26.444,140.998,26.846,140.969,27.242z M110.886,25.516l-1.709-0.062c0.015-0.403,0.044-0.805,0.088-1.201l1.701,0.189
			C110.926,24.796,110.899,25.154,110.886,25.516z M139.259,24.938c-0.026-0.36-0.067-0.716-0.121-1.067l1.691-0.26
			c0.06,0.395,0.106,0.793,0.138,1.197L139.259,24.938z M111.365,22.331l-1.651-0.444c0.104-0.39,0.223-0.774,0.356-1.152
			l1.614,0.569C111.565,21.641,111.459,21.983,111.365,22.331z M138.651,21.777c-0.106-0.343-0.227-0.681-0.36-1.012l1.589-0.638
			c0.147,0.372,0.282,0.751,0.405,1.136L138.651,21.777z M112.554,19.338l-1.509-0.808c0.19-0.355,0.394-0.703,0.611-1.042
			l1.441,0.923C112.904,18.713,112.724,19.021,112.554,19.338z M137.343,18.835c-0.182-0.309-0.376-0.61-0.58-0.903l1.405-0.977
			c0.229,0.328,0.446,0.667,0.649,1.014L137.343,18.835z M114.388,16.688l-1.289-1.126c0.264-0.302,0.54-0.595,0.826-0.876
			l1.2,1.219C114.87,16.157,114.624,16.418,114.388,16.688z M135.406,16.267c-0.247-0.263-0.504-0.513-0.77-0.754l1.149-1.268
			c0.298,0.27,0.585,0.551,0.861,0.841L135.406,16.267z M116.768,14.52l-1.003-1.389c0.324-0.233,0.658-0.457,1-0.667l0.897,1.457
			C117.356,14.109,117.058,14.309,116.768,14.52z M132.938,14.191c-0.299-0.198-0.604-0.385-0.918-0.562l0.836-1.492
			c0.352,0.196,0.695,0.406,1.03,0.629L132.938,14.191z M119.571,12.938l-0.665-1.576c0.369-0.155,0.744-0.297,1.127-0.426
			l0.543,1.624C120.234,12.673,119.9,12.8,119.571,12.938z M130.071,12.726c-0.335-0.125-0.676-0.238-1.021-0.339l0.477-1.642
			c0.388,0.111,0.769,0.238,1.143,0.377L130.071,12.726z M122.66,12.035l-0.291-1.688c0.394-0.066,0.792-0.12,1.195-0.158
			l0.159,1.704C123.366,11.927,123.01,11.975,122.66,12.035z M126.947,11.949c-0.354-0.047-0.711-0.079-1.071-0.1l0.093-1.709
			c0.403,0.022,0.805,0.06,1.2,0.111L126.947,11.949z"/>
	</g>
	<g>
		<circle fill="#FF7058" cx="125.09" cy="26.041" r="11.961"/>
	</g>
	<g>
		<circle fill="#FFFFFF" cx="125.089" cy="26.041" r="5.979"/>
		<path fill="#231F20" d="M125.089,32.875c-3.769,0-6.834-3.065-6.834-6.834s3.065-6.835,6.834-6.835s6.835,3.066,6.835,6.835
			S128.857,32.875,125.089,32.875z M125.089,20.918c-2.824,0-5.123,2.298-5.123,5.123s2.299,5.123,5.123,5.123
			c2.825,0,5.123-2.298,5.123-5.123S127.914,20.918,125.089,20.918z"/>
	</g>
	<circle fill="#84DBFF" cx="90.235" cy="74.73" r="29.762"/>
	<g>
		<circle fill="#FFFFFF" cx="90.236" cy="74.731" r="23.44"/>
		<path fill="#231F20" d="M90.236,99.026c-6.49,0-12.591-2.526-17.18-7.117c-9.474-9.472-9.474-24.886,0-34.357
			c4.589-4.589,10.689-7.116,17.18-7.116c6.488,0,12.59,2.527,17.178,7.116c4.591,4.589,7.117,10.689,7.117,17.18
			c0,6.489-2.526,12.59-7.117,17.178C102.826,96.5,96.726,99.026,90.236,99.026z M90.236,52.147c-6.033,0-11.704,2.348-15.97,6.614
			c-8.806,8.806-8.806,23.133,0,31.938c4.266,4.268,9.937,6.616,15.97,6.616c6.031,0,11.703-2.349,15.968-6.616
			c4.268-4.265,6.616-9.936,6.616-15.968c0-6.033-2.349-11.704-6.616-15.97C101.939,54.495,96.268,52.147,90.236,52.147z"/>
	</g>
	<path fill="#FFFFFF" d="M117.294,101.789L117.294,101.789c-2.434,2.435-2.434,6.381,0,8.815l18.335,18.335
		c2.435,2.434,6.382,2.434,8.816,0l0,0c2.433-2.434,2.433-6.381,0-8.815l-18.336-18.335
		C123.675,99.355,119.729,99.355,117.294,101.789z"/>
	
		<rect x="120.472" y="109.132" transform="matrix(0.7071 0.7071 -0.7071 0.7071 119.9118 -58.7496)" fill="#E6E9EE" width="20.795" height="12.466"/>
	<g>
		<path fill="#231F20" d="M99.896,88.397c-0.136,0-0.273-0.032-0.397-0.098l-9.263-4.871L80.974,88.3
			c-0.289,0.151-0.637,0.126-0.901-0.065c-0.263-0.19-0.396-0.517-0.341-0.837L81.5,77.083l-7.493-7.304
			c-0.232-0.228-0.316-0.568-0.216-0.878c0.1-0.311,0.367-0.535,0.69-0.582l10.355-1.505l4.632-9.384
			c0.144-0.292,0.44-0.478,0.768-0.478l0,0c0.326,0,0.622,0.186,0.768,0.478l4.63,9.384l10.356,1.505
			c0.322,0.047,0.591,0.271,0.691,0.582c0.1,0.31,0.017,0.65-0.218,0.878l-7.492,7.304l1.769,10.314
			c0.056,0.32-0.077,0.646-0.34,0.837C100.251,88.342,100.074,88.397,99.896,88.397z M90.236,81.607
			c0.137,0,0.273,0.032,0.397,0.098l8.126,4.272l-1.551-9.048c-0.048-0.279,0.045-0.562,0.245-0.758l6.574-6.408l-9.085-1.32
			c-0.278-0.042-0.521-0.217-0.645-0.468l-4.062-8.232l-4.064,8.232c-0.124,0.251-0.364,0.426-0.643,0.468l-9.087,1.32l6.575,6.408
			c0.2,0.196,0.293,0.479,0.245,0.758l-1.551,9.048l8.126-4.272C89.963,81.64,90.099,81.607,90.236,81.607z"/>
	</g>
	<g>
		<polygon fill="#FFD05B" points="84.873,75.988 79.507,70.76 86.921,69.682 90.236,62.964 93.552,69.682 100.965,70.76 
			95.6,75.988 96.867,83.371 90.236,79.885 83.606,83.371 		"/>
	</g>
	<g>
		<g>
			<path fill="#231F20" d="M19.465,46.955H10.99c-0.472,0-0.855-0.383-0.855-0.855v-8.474c0-0.474,0.384-0.855,0.855-0.855h8.475
				c0.472,0,0.855,0.382,0.855,0.855V46.1C20.32,46.572,19.937,46.955,19.465,46.955z M11.847,45.244h6.763v-6.763h-6.763V45.244z"
				/>
		</g>
		<g>
			<g>
				<path fill="#231F20" d="M45.206,40.403H23.382c-0.473,0-0.855-0.384-0.855-0.855c0-0.473,0.383-0.855,0.855-0.855h21.824
					c0.473,0,0.855,0.383,0.855,0.855C46.062,40.02,45.679,40.403,45.206,40.403z"/>
			</g>
			<g>
				<path fill="#231F20" d="M53.011,45.032H23.382c-0.473,0-0.855-0.383-0.855-0.855s0.383-0.855,0.855-0.855h29.629
					c0.471,0,0.855,0.383,0.855,0.855S53.481,45.032,53.011,45.032z"/>
			</g>
		</g>
	</g>
	<g>
		<circle fill="#84DBFF" cx="20.474" cy="18.221" r="7.393"/>
	</g>
	<g>
		<path fill="#231F20" d="M20.474,29.344c-6.133,0-11.123-4.989-11.123-11.123s4.99-11.124,11.123-11.124
			c6.134,0,11.124,4.99,11.124,11.124S26.607,29.344,20.474,29.344z M20.474,8.809c-5.189,0-9.412,4.223-9.412,9.412
			s4.223,9.411,9.412,9.411s9.412-4.222,9.412-9.411S25.663,8.809,20.474,8.809z"/>
	</g>
	<g>
		<path fill="#231F20" d="M20.474,29.344c-3.068,0-4.724-5.731-4.724-11.123s1.655-11.124,4.724-11.124s4.725,5.732,4.725,11.124
			S23.542,29.344,20.474,29.344z M20.474,8.809c-1.228,0-3.012,3.667-3.012,9.412c0,5.746,1.784,9.411,3.012,9.411
			c1.229,0,3.013-3.665,3.013-9.411C23.486,12.476,21.702,8.809,20.474,8.809z"/>
	</g>
	<g>
		<rect x="10.206" y="17.364" fill="#231F20" width="20.535" height="1.712"/>
	</g>
	<rect x="8.286" y="134.199" fill="#FFFFFF" width="76.458" height="8.094"/>
	<path fill="#FFFFFF" d="M4.903,142.293h3.383v-8.094H4.903c-2.235,0-4.048,1.812-4.048,4.046l0,0
		C0.855,140.481,2.668,142.293,4.903,142.293z"/>
	<polygon fill="#FFFFFF" points="84.744,134.199 97.958,138.245 84.744,142.293 	"/>
	<g>
		<path fill="#231F20" d="M51.199,79.055h-8.475c-0.472,0-0.855,0.384-0.855,0.855v8.475c0,0.472,0.384,0.855,0.855,0.855h8.475
			c0.472,0,0.855-0.384,0.855-0.855V79.91C52.055,79.438,51.671,79.055,51.199,79.055z M50.343,87.529h-6.762v-6.763h6.762V87.529z"
			/>
		<path fill="#231F20" d="M51.199,94.927h-8.475c-0.472,0-0.855,0.383-0.855,0.855v8.474c0,0.473,0.384,0.855,0.855,0.855h8.475
			c0.472,0,0.855-0.383,0.855-0.855v-8.474C52.055,95.31,51.671,94.927,51.199,94.927z M50.343,103.4h-6.762v-6.763h6.762V103.4z"/>
		<rect x="41.185" y="1.13" fill="#231F20" width="3.3" height="1.711"/>
		<path fill="#231F20" d="M145.049,119.52l-18.335-18.335c-1.339-1.339-3.119-2.076-5.012-2.076c-1.604,0-3.125,0.534-4.368,1.512
			l-4.858-4.86c11.336-11.979,11.145-30.944-0.589-42.679c-5.783-5.782-13.472-8.968-21.65-8.968c-3.723,0-7.34,0.666-10.726,1.931
			v-24.29c0-0.236-0.096-0.45-0.251-0.605L59.492,1.382c-0.155-0.156-0.369-0.252-0.604-0.252H47.934v1.711h10.099v18.913
			c0,0.473,0.383,0.856,0.856,0.856h18.91v24.135c-3.182,1.416-6.124,3.383-8.707,5.855H26.727c-2.337,0-4.53,0.907-6.177,2.554
			c-1.646,1.646-2.554,3.835-2.554,6.164v27.363c0,1.88-0.729,3.644-2.051,4.967c-1.323,1.324-3.083,2.053-4.955,2.053
			c-3.87,0-7.019-3.148-7.019-7.02V2.841h33.612V1.13H3.116c-0.473,0-0.855,0.385-0.855,0.855v86.696c0,4.814,3.916,8.73,8.729,8.73
			h22.743v35.931H4.903c-2.704,0-4.903,2.199-4.903,4.902c0,2.704,2.199,4.904,4.903,4.904h28.83v4.864
			c0,0.473,0.383,0.855,0.855,0.855h75.539c0.472,0,0.856-0.383,0.856-0.855V97.226c0.092-0.085,0.189-0.167,0.281-0.255
			l4.858,4.858c-0.977,1.242-1.51,2.763-1.51,4.368c0,1.893,0.736,3.673,2.075,5.012l18.335,18.335
			c1.339,1.339,3.119,2.077,5.014,2.077c1.893,0,3.672-0.738,5.011-2.077C147.814,126.78,147.814,122.283,145.049,119.52z
			 M59.744,20.898V4.051l16.845,16.848H59.744z M16.181,95.701c0.342-0.256,0.668-0.536,0.975-0.843
			c1.646-1.646,2.552-3.84,2.552-6.177V61.318c0-1.872,0.729-3.632,2.053-4.954c1.323-1.324,3.087-2.053,4.967-2.053
			c1.871,0,3.632,0.729,4.954,2.053c1.323,1.322,2.053,3.082,2.053,4.954v34.383H16.181z M9.142,135.055h74.747v2.335H9.142V135.055
			z M7.43,141.438H4.903c-1.761,0-3.192-1.433-3.192-3.193c0-1.76,1.432-3.19,3.192-3.19H7.43V141.438z M9.142,141.438v-2.338
			h74.747v2.338H9.142z M109.272,147.158H35.444v-4.009h49.3c0.085,0,0.169-0.014,0.251-0.038l13.214-4.047
			c0.358-0.11,0.604-0.442,0.604-0.819c0-0.375-0.246-0.707-0.604-0.817l-13.214-4.048c-0.032-0.01-0.064,0-0.097-0.007
			c-0.052-0.009-0.1-0.03-0.154-0.03h-49.3V61.318c0-2.328-0.907-4.519-2.553-6.164c-0.308-0.307-0.633-0.589-0.975-0.843h35.508
			c-5.045,5.622-7.807,12.808-7.807,20.42c0,2.068,0.206,4.106,0.604,6.09h-5.104c-0.474,0-0.855,0.383-0.855,0.855
			c0,0.472,0.382,0.855,0.855,0.855h5.504c0.258,0.989,0.568,1.963,0.925,2.918h-6.429c-0.474,0-0.855,0.383-0.855,0.855
			s0.382,0.855,0.855,0.855h7.129c1.508,3.392,3.636,6.516,6.339,9.22c0.161,0.16,0.329,0.312,0.492,0.469h-13.96
			c-0.474,0-0.855,0.383-0.855,0.855s0.382,0.855,0.855,0.855h15.895c1.362,1.103,2.805,2.075,4.313,2.918H55.118
			c-0.474,0-0.855,0.384-0.855,0.855c0,0.473,0.382,0.855,0.855,0.855H78.92c3.554,1.413,7.377,2.158,11.316,2.158
			c7.003,0,13.641-2.346,19.036-6.649V147.158z M85.601,141.137v-5.781l9.437,2.89L85.601,141.137z M110.676,95.171
			c-5.46,5.46-12.718,8.466-20.439,8.466c-7.723,0-14.98-3.006-20.44-8.466c-5.46-5.461-8.467-12.719-8.467-20.439
			c0-7.723,3.007-14.98,8.467-20.44s12.718-8.467,20.44-8.467c7.722,0,14.979,3.007,20.439,8.467
			C121.945,65.562,121.945,83.9,110.676,95.171z M117.899,109.999c-1.017-1.016-1.574-2.366-1.574-3.802
			c0-1.437,0.558-2.788,1.574-3.803c1.016-1.017,2.366-1.574,3.803-1.574c1.436,0,2.786,0.558,3.802,1.574l1.21,1.211l-7.604,7.604
			L117.899,109.999z M120.32,112.42l7.604-7.605l6.747,6.748l6.747,6.747l-7.604,7.604L120.32,112.42z M143.839,128.334
			c-1.016,1.017-2.366,1.575-3.801,1.575c-1.438,0-2.788-0.559-3.803-1.575l-1.211-1.21l7.604-7.604l1.21,1.21
			C145.937,122.826,145.937,126.237,143.839,128.334z"/>
	</g>
</g>
</svg>
